<svg width="40px" height="32px" viewBox="0 0 40 16" version="1.1" xmlns="http://www.w3.org/2000/svg" xmlns:xlink="http://www.w3.org/1999/xlink">
  <title>编组 3备份 2</title>
  <defs>
    <rect id="path-1" x="0" y="0" width="102" height="28"></rect>
    <linearGradient x1="0%" y1="38.1124424%" x2="94.0076601%" y2="62.6108312%" id="linearGradient-3">
      <stop stop-color="#8FF4FF" offset="0%"></stop>
      <stop stop-color="#73B3FF" offset="51.7598932%"></stop>
      <stop stop-color="#5F81FF" offset="100%"></stop>
    </linearGradient>
    <polygon id="path-4" points="0.0446990757 0.0597394286 6.54334286 0.0597394286 6.54334286 8.20643246 0.0446990757 8.20643246"></polygon>
    <polygon id="path-6" points="0.0401132317 0.0990226286 5.70040208 0.0990226286 5.70040208 5.92259863 0.0401132317 5.92259863"></polygon>
  </defs>
  <g id="页面-1" stroke="none" stroke-width="1" fill="none" fill-rule="evenodd">
    <g id="首页-快速了解-hover" transform="translate(-363.000000, -3375.000000)">
      <g id="编组-3备份-2" transform="translate(363.000000, 3375.000000)">
        <mask id="mask-2" fill="white">
          <use xlink:href="#path-1"></use>
        </mask>
        <g id="矩形"></g>
        <g id="编组-129" mask="url(#mask-2)" fill="url(#linearGradient-3)">
          <g transform="translate(2.000000, 4.000000)" id="形状结合">
            <path d="M33.0646787,0 C31.8235966,0 30.9821628,0.695408169 30.9821628,1.76025085 L30.9821628,1.76025085 C30.9821628,2.65121546 31.6973866,3.1184282 32.3074185,3.36833671 L32.3074185,3.36833671 C32.833344,3.5857103 33.317166,3.71602345 33.317166,3.99857096 L33.317166,3.99857096 C33.317166,4.21587517 33.1698706,4.32450994 32.7912405,4.32450994 L32.7912405,4.32450994 C32.4231195,4.32450994 31.9918431,4.15066657 31.5080212,3.78123206 L31.5080212,3.78123206 L30.708691,4.93299642 C31.2556347,5.3893873 32.0760167,5.6936132 32.7491704,5.6936132 L32.7491704,5.6936132 C34.2216544,5.6936132 35,4.91128334 35,3.88990151 L35,3.88990151 C35,2.91201521 34.2847762,2.49908517 33.6536925,2.26006788 L33.6536925,2.26006788 C33.1278006,2.06447674 32.6650304,1.95584198 32.6650304,1.67336384 L32.6650304,1.67336384 C32.6650304,1.45599026 32.8228014,1.36903389 33.1278006,1.36903389 L33.1278006,1.36903389 C33.4538851,1.36903389 33.8220061,1.54287726 34.2006362,1.82542477 L34.2006362,1.82542477 L35,0.717155934 C34.5372299,0.358577967 33.9271979,0 33.0646787,0 Z M21.2799385,3.64748505 L18.2749377,3.64748505 L18.2737625,3.64748505 L14.6028267,13.2836522 L10.9318908,3.64748505 L7.92571484,3.64748505 L6.77636079,16.7832733 L9.78257032,16.7832733 L10.4144263,9.56128135 L13.3571111,16.5536904 L13.3551638,16.5587892 L13.35926,16.5587892 L15.8463934,16.5587892 L15.8504896,16.5587892 L15.8485086,16.5536904 L18.7921671,9.55899211 L19.4242582,16.7832733 L22.4304677,16.7832733 L21.2810801,3.64748505 L21.2799385,3.64748505 Z M0,1.57274141 L0,1.57686898 L0,3.60374672 L0,3.62389895 L0,19.8296945 L0,20 L4.97792655,20 L4.97792655,17.9353845 L1.99491764,17.9353845 L1.99491764,3.62389895 L4.97792655,3.62389895 L4.97792655,3.60374672 L4.97792655,3.4343084 L4.97792655,1.57686898 L4.97792655,1.57274141 L0,1.57274141 Z M24.2288683,1.57274141 L24.2288683,1.57686898 L24.2288683,3.4343084 L24.2288683,3.60374672 L24.2288683,3.62389895 L27.2119108,3.62389895 L27.2119108,17.9353845 L24.2288683,17.9353845 L24.2288683,20 L29.2068285,20 L29.2068285,19.8296945 L29.2068285,3.62389895 L29.2068285,3.60374672 L29.2068285,1.57686898 L29.2068285,1.57274141 L24.2288683,1.57274141 Z"></path>
          </g>
        </g>
        <g id="编组" mask="url(#mask-2)">
          <g transform="translate(40.102857, 8.468571)">
            <g id="编组" stroke-width="1" fill="none" transform="translate(27.357607, 0.053437)">
              <mask id="mask-5" fill="white">
                <use xlink:href="#path-4"></use>
              </mask>
              <g id="Clip-12"></g>
            </g>
            <g id="编组" stroke-width="1" fill="none" transform="translate(54.827796, 2.316295)">
              <mask id="mask-7" fill="white"></mask>
            </g>
          </g>
        </g>
      </g>
    </g>
  </g>
</svg>